<svg width="54" height="54" viewBox="0 0 54 54" fill="none" xmlns="http://www.w3.org/2000/svg">
<g clip-path="url(#clip0_7_2)">
<path d="M31.7778 39.3612C32.2983 38.4205 33.0733 37.6455 34.014 37.125" stroke="black" stroke-linecap="round" stroke-linejoin="round"/>
<path d="M40.8681 16.2709C41.117 15.821 41.4877 15.4504 41.9375 15.2014" stroke="black" stroke-width="0.75" stroke-linecap="round" stroke-linejoin="round"/>
<path d="M8.25 11.8284C9.08286 10.323 10.323 9.08286 11.8284 8.25" stroke="black" stroke-linecap="round" stroke-linejoin="round"/>
<path d="M15.2014 30.7083C23.1752 30.7083 29.6389 24.2446 29.6389 16.2708C29.6389 8.29704 23.1752 1.83331 15.2014 1.83331C7.22761 1.83331 0.763885 8.29704 0.763885 16.2708C0.763885 24.2446 7.22761 30.7083 15.2014 30.7083ZM43.8614 27.1791C46.1002 27.1791 48.2472 26.2898 49.8302 24.7068C51.4132 23.1238 52.3026 20.9767 52.3026 18.738C52.3026 16.4993 51.4132 14.3523 49.8302 12.7692C48.2472 11.1862 46.1002 10.2969 43.8614 10.2969C41.6227 10.2969 39.4757 11.1862 37.8927 12.7692C36.3096 14.3523 35.4203 16.4993 35.4203 18.738C35.4203 20.9767 36.3096 23.1238 37.8927 24.7068C39.4757 26.2898 41.6227 27.1791 43.8614 27.1791ZM36.0556 53.1666C41.9621 53.1666 46.75 48.3787 46.75 42.4722C46.75 36.5657 41.9621 31.7778 36.0556 31.7778C30.149 31.7778 25.3611 36.5657 25.3611 42.4722C25.3611 48.3787 30.149 53.1666 36.0556 53.1666Z" fill="#92D3F5"/>
<path d="M23.2222 16.2708C23.2222 18.1144 22.4898 19.8825 21.1862 21.1862C19.8826 22.4898 18.1145 23.2222 16.2708 23.2222" stroke="#61B2E4" stroke-width="2.5" stroke-linecap="round" stroke-linejoin="round"/>
<path d="M42.4722 42.4722C42.4722 43.8904 41.9089 45.2505 40.9061 46.2533C39.9033 47.2561 38.5432 47.8195 37.125 47.8195" stroke="#61B2E4" stroke-width="1.5" stroke-linecap="round" stroke-linejoin="round"/>
<path d="M48.3542 19.4792C48.3542 20.3301 48.0161 21.1461 47.4145 21.7478C46.8128 22.3495 45.9967 22.6875 45.1458 22.6875" stroke="#61B2E4" stroke-width="1.25" stroke-linecap="round" stroke-linejoin="round"/>
<path d="M31.7778 39.3612C32.2983 38.4205 33.0733 37.6455 34.014 37.125" stroke="white" stroke-linecap="round" stroke-linejoin="round"/>
<path d="M40.868 16.2709C41.117 15.821 41.4877 15.4504 41.9375 15.2014" stroke="white" stroke-width="0.75" stroke-linecap="round" stroke-linejoin="round"/>
<path d="M8.25 11.8284C9.08286 10.323 10.323 9.08286 11.8284 8.25" stroke="white" stroke-linecap="round" stroke-linejoin="round"/>
<path d="M16.2708 30.7083C24.2446 30.7083 30.7083 24.2446 30.7083 16.2708C30.7083 8.29704 24.2446 1.83331 16.2708 1.83331C8.29705 1.83331 1.83333 8.29704 1.83333 16.2708C1.83333 24.2446 8.29705 30.7083 16.2708 30.7083ZM44.6111 27.5C46.8802 27.5 49.0563 26.5986 50.6608 24.9941C52.2653 23.3896 53.1667 21.2135 53.1667 18.9444C53.1667 16.6753 52.2653 14.4992 50.6608 12.8947C49.0563 11.2903 46.8802 10.3889 44.6111 10.3889C42.342 10.3889 40.1659 11.2903 38.5614 12.8947C36.9569 14.4992 36.0555 16.6753 36.0555 18.9444C36.0555 21.2135 36.9569 23.3896 38.5614 24.9941C40.1659 26.5986 42.342 27.5 44.6111 27.5ZM37.125 53.1666C43.0315 53.1666 47.8194 48.3787 47.8194 42.4722C47.8194 36.5657 43.0315 31.7778 37.125 31.7778C31.2185 31.7778 26.4305 36.5657 26.4305 42.4722C26.4305 48.3787 31.2185 53.1666 37.125 53.1666Z" stroke="black" stroke-width="0.5" stroke-linecap="round" stroke-linejoin="round"/>
<path d="M37.125 53.1667C43.0315 53.1667 47.8194 48.3788 47.8194 42.4722C47.8194 36.5657 43.0315 31.7778 37.125 31.7778C31.2185 31.7778 26.4306 36.5657 26.4306 42.4722C26.4306 48.3788 31.2185 53.1667 37.125 53.1667Z" stroke="black" stroke-width="0.5" stroke-linecap="round" stroke-linejoin="round"/>
</g>
<defs>
<clipPath id="clip0_7_2">
<rect width="54" height="54" fill="white"/>
</clipPath>
</defs>
</svg>
